# xmcd CD Database Entry
#
# Track frame offsets:
# 150
# 12507
# 25040
# 37865
# 50140
# 62215
# 75082
# 88305
# 99735
# 112190
#
# Disc length: 1653 seconds
#
# Revision: 1
# Processed by: cddbd v1.4PL0 Copyright (c) Steve Scherf et al.
# Submitted via: tcd 2.0b
#
DISCID=7c06730a
DTITLE=Grandpa Jones - 1978
DYEAR=1900
DGENRE=
TTITLE0=EIght More Miles to Louisville
TTITLE1=Mountain Dew
TTITLE2=Old Rattler
TTITLE3=How Many Biscuits
TTITLE4=Five String Banjo Boogie
TTITLE5=15 Cents is All I Got
TTITLE6=Tragic Romance
TTITLE7=Jenny get your Hoe Cakes
TTITLE8=Old Rattler's Treed Again
TTITLE9=I'm My Own Grandpa
EXTD=
EXTT0=
EXTT1=
EXTT2=
EXTT3=
EXTT4=
EXTT5=
EXTT6=
EXTT7=\n\n
EXTT8=\n\\
EXTT9=
PLAYORDER=
